<mxfile host="app.diagrams.net" modified="2021-07-10T13:03:05.207Z" agent="5.0 (X11; Linux x86_64) AppleWebKit/537.36 (KHTML, like Gecko) Chrome/91.0.4472.114 Safari/537.36" etag="8z4lepSl6aLrwfubQOi9" version="14.8.4" type="github" pages="3">
  <diagram id="C5RBs43oDa-KdzZeNtuy" name="Page-1">
    <mxGraphModel dx="829" dy="421" grid="1" gridSize="10" guides="1" tooltips="1" connect="1" arrows="1" fold="1" page="1" pageScale="1" pageWidth="827" pageHeight="1169" math="0" shadow="0">
      <root>
        <mxCell id="WIyWlLk6GJQsqaUBKTNV-0" />
        <mxCell id="WIyWlLk6GJQsqaUBKTNV-1" parent="WIyWlLk6GJQsqaUBKTNV-0" />
        <mxCell id="WIyWlLk6GJQsqaUBKTNV-2" value="" style="rounded=1;html=1;jettySize=auto;orthogonalLoop=1;fontSize=11;endArrow=block;endFill=0;endSize=8;strokeWidth=1;shadow=0;labelBackgroundColor=none;edgeStyle=orthogonalEdgeStyle;" parent="WIyWlLk6GJQsqaUBKTNV-1" source="WIyWlLk6GJQsqaUBKTNV-3" target="WIyWlLk6GJQsqaUBKTNV-6" edge="1">
          <mxGeometry relative="1" as="geometry" />
        </mxCell>
        <mxCell id="WIyWlLk6GJQsqaUBKTNV-3" value="Splash" style="rounded=1;whiteSpace=wrap;html=1;fontSize=12;glass=0;strokeWidth=1;shadow=0;fillColor=#dae8fc;strokeColor=#6c8ebf;" parent="WIyWlLk6GJQsqaUBKTNV-1" vertex="1">
          <mxGeometry x="160" y="80" width="120" height="40" as="geometry" />
        </mxCell>
        <mxCell id="WIyWlLk6GJQsqaUBKTNV-4" value="Yes" style="rounded=1;html=1;jettySize=auto;orthogonalLoop=1;fontSize=11;endArrow=block;endFill=0;endSize=8;strokeWidth=1;shadow=0;labelBackgroundColor=none;edgeStyle=orthogonalEdgeStyle;entryX=0.5;entryY=0;entryDx=0;entryDy=0;entryPerimeter=0;" parent="WIyWlLk6GJQsqaUBKTNV-1" source="WIyWlLk6GJQsqaUBKTNV-6" target="AL4Si43PXEjxfvqcPq0g-20" edge="1">
          <mxGeometry y="20" relative="1" as="geometry">
            <mxPoint as="offset" />
            <mxPoint x="220" y="290" as="targetPoint" />
          </mxGeometry>
        </mxCell>
        <mxCell id="WIyWlLk6GJQsqaUBKTNV-5" value="No" style="edgeStyle=orthogonalEdgeStyle;rounded=1;html=1;jettySize=auto;orthogonalLoop=1;fontSize=11;endArrow=block;endFill=0;endSize=8;strokeWidth=1;shadow=0;labelBackgroundColor=none;" parent="WIyWlLk6GJQsqaUBKTNV-1" source="WIyWlLk6GJQsqaUBKTNV-6" target="WIyWlLk6GJQsqaUBKTNV-7" edge="1">
          <mxGeometry y="10" relative="1" as="geometry">
            <mxPoint as="offset" />
          </mxGeometry>
        </mxCell>
        <mxCell id="WIyWlLk6GJQsqaUBKTNV-6" value="is &lt;br&gt;User Logged In ?" style="rhombus;whiteSpace=wrap;html=1;shadow=0;fontFamily=Helvetica;fontSize=12;align=center;strokeWidth=1;spacing=6;spacingTop=-4;" parent="WIyWlLk6GJQsqaUBKTNV-1" vertex="1">
          <mxGeometry x="170" y="170" width="100" height="80" as="geometry" />
        </mxCell>
        <mxCell id="AL4Si43PXEjxfvqcPq0g-19" style="edgeStyle=orthogonalEdgeStyle;rounded=1;orthogonalLoop=1;jettySize=auto;html=1;exitX=0.5;exitY=1;exitDx=0;exitDy=0;entryX=0.5;entryY=0;entryDx=0;entryDy=0;" parent="WIyWlLk6GJQsqaUBKTNV-1" source="WIyWlLk6GJQsqaUBKTNV-7" target="AL4Si43PXEjxfvqcPq0g-14" edge="1">
          <mxGeometry relative="1" as="geometry" />
        </mxCell>
        <mxCell id="WIyWlLk6GJQsqaUBKTNV-7" value="User Login" style="rounded=1;whiteSpace=wrap;html=1;fontSize=12;glass=0;strokeWidth=1;shadow=0;fillColor=#dae8fc;strokeColor=#6c8ebf;" parent="WIyWlLk6GJQsqaUBKTNV-1" vertex="1">
          <mxGeometry x="350" y="190" width="120" height="40" as="geometry" />
        </mxCell>
        <mxCell id="AL4Si43PXEjxfvqcPq0g-0" value="Dashboard" style="rounded=1;whiteSpace=wrap;html=1;fontSize=12;glass=0;strokeWidth=1;shadow=0;fillColor=#dae8fc;strokeColor=#6c8ebf;" parent="WIyWlLk6GJQsqaUBKTNV-1" vertex="1">
          <mxGeometry x="160" y="544.5" width="120" height="40" as="geometry" />
        </mxCell>
        <mxCell id="AL4Si43PXEjxfvqcPq0g-28" style="edgeStyle=orthogonalEdgeStyle;rounded=0;orthogonalLoop=1;jettySize=auto;html=1;entryX=0;entryY=0.5;entryDx=0;entryDy=0;" parent="WIyWlLk6GJQsqaUBKTNV-1" source="AL4Si43PXEjxfvqcPq0g-13" target="AL4Si43PXEjxfvqcPq0g-27" edge="1">
          <mxGeometry relative="1" as="geometry" />
        </mxCell>
        <mxCell id="AL4Si43PXEjxfvqcPq0g-13" value="Goal setup" style="rounded=1;whiteSpace=wrap;html=1;fontSize=12;glass=0;strokeWidth=1;shadow=0;fillColor=#dae8fc;strokeColor=#6c8ebf;" parent="WIyWlLk6GJQsqaUBKTNV-1" vertex="1">
          <mxGeometry x="350" y="390" width="120" height="40" as="geometry" />
        </mxCell>
        <mxCell id="AL4Si43PXEjxfvqcPq0g-17" value="faill" style="edgeStyle=orthogonalEdgeStyle;rounded=1;orthogonalLoop=1;jettySize=auto;html=1;" parent="WIyWlLk6GJQsqaUBKTNV-1" source="AL4Si43PXEjxfvqcPq0g-14" target="AL4Si43PXEjxfvqcPq0g-16" edge="1">
          <mxGeometry relative="1" as="geometry" />
        </mxCell>
        <mxCell id="AL4Si43PXEjxfvqcPq0g-18" style="edgeStyle=orthogonalEdgeStyle;rounded=1;orthogonalLoop=1;jettySize=auto;html=1;entryX=0.5;entryY=0;entryDx=0;entryDy=0;" parent="WIyWlLk6GJQsqaUBKTNV-1" source="AL4Si43PXEjxfvqcPq0g-14" target="AL4Si43PXEjxfvqcPq0g-13" edge="1">
          <mxGeometry relative="1" as="geometry" />
        </mxCell>
        <mxCell id="AL4Si43PXEjxfvqcPq0g-14" value="Login using Google/Apple Id" style="rhombus;whiteSpace=wrap;html=1;shadow=0;fontFamily=Helvetica;fontSize=12;align=center;strokeWidth=1;spacing=6;spacingTop=-4;" parent="WIyWlLk6GJQsqaUBKTNV-1" vertex="1">
          <mxGeometry x="350" y="270" width="120" height="80" as="geometry" />
        </mxCell>
        <mxCell id="AL4Si43PXEjxfvqcPq0g-16" value="Fail appropriate Message" style="shape=parallelogram;perimeter=parallelogramPerimeter;whiteSpace=wrap;html=1;fixedSize=1;shadow=0;strokeWidth=1;spacing=6;spacingTop=-4;fillColor=#f5f5f5;strokeColor=#666666;fontColor=#333333;" parent="WIyWlLk6GJQsqaUBKTNV-1" vertex="1">
          <mxGeometry x="530" y="290" width="130" height="40" as="geometry" />
        </mxCell>
        <mxCell id="AL4Si43PXEjxfvqcPq0g-23" style="edgeStyle=orthogonalEdgeStyle;rounded=1;orthogonalLoop=1;jettySize=auto;html=1;exitX=0.5;exitY=1;exitDx=0;exitDy=0;entryX=0.5;entryY=0;entryDx=0;entryDy=0;" parent="WIyWlLk6GJQsqaUBKTNV-1" source="AL4Si43PXEjxfvqcPq0g-20" target="AL4Si43PXEjxfvqcPq0g-0" edge="1">
          <mxGeometry relative="1" as="geometry" />
        </mxCell>
        <mxCell id="AL4Si43PXEjxfvqcPq0g-24" value="Yes" style="edgeLabel;html=1;align=center;verticalAlign=middle;resizable=0;points=[];" parent="AL4Si43PXEjxfvqcPq0g-23" vertex="1" connectable="0">
          <mxGeometry x="-0.3362" y="1" relative="1" as="geometry">
            <mxPoint as="offset" />
          </mxGeometry>
        </mxCell>
        <mxCell id="AL4Si43PXEjxfvqcPq0g-25" style="edgeStyle=orthogonalEdgeStyle;rounded=1;orthogonalLoop=1;jettySize=auto;html=1;entryX=0;entryY=0.5;entryDx=0;entryDy=0;" parent="WIyWlLk6GJQsqaUBKTNV-1" source="AL4Si43PXEjxfvqcPq0g-20" target="AL4Si43PXEjxfvqcPq0g-13" edge="1">
          <mxGeometry relative="1" as="geometry" />
        </mxCell>
        <mxCell id="AL4Si43PXEjxfvqcPq0g-26" value="No" style="edgeLabel;html=1;align=center;verticalAlign=middle;resizable=0;points=[];" parent="AL4Si43PXEjxfvqcPq0g-25" vertex="1" connectable="0">
          <mxGeometry x="-0.3" y="1" relative="1" as="geometry">
            <mxPoint as="offset" />
          </mxGeometry>
        </mxCell>
        <mxCell id="AL4Si43PXEjxfvqcPq0g-20" value="is&lt;br&gt;Main Goal&lt;br&gt;&amp;nbsp;exist" style="rhombus;whiteSpace=wrap;html=1;shadow=0;fontFamily=Helvetica;fontSize=12;align=center;strokeWidth=1;spacing=6;spacingTop=-4;" parent="WIyWlLk6GJQsqaUBKTNV-1" vertex="1">
          <mxGeometry x="170" y="370" width="100" height="80" as="geometry" />
        </mxCell>
        <mxCell id="AL4Si43PXEjxfvqcPq0g-29" style="edgeStyle=orthogonalEdgeStyle;rounded=1;orthogonalLoop=1;jettySize=auto;html=1;exitX=0.5;exitY=1;exitDx=0;exitDy=0;entryX=1;entryY=0.5;entryDx=0;entryDy=0;" parent="WIyWlLk6GJQsqaUBKTNV-1" source="AL4Si43PXEjxfvqcPq0g-27" target="AL4Si43PXEjxfvqcPq0g-0" edge="1">
          <mxGeometry relative="1" as="geometry" />
        </mxCell>
        <mxCell id="AL4Si43PXEjxfvqcPq0g-27" value="100 days Goal setup" style="shape=process;whiteSpace=wrap;html=1;backgroundOutline=1;" parent="WIyWlLk6GJQsqaUBKTNV-1" vertex="1">
          <mxGeometry x="540" y="380" width="120" height="60" as="geometry" />
        </mxCell>
        <mxCell id="AL4Si43PXEjxfvqcPq0g-30" value="&lt;h1&gt;&lt;font style=&quot;font-size: 18px&quot;&gt;Long term Goal setup&lt;/font&gt;&lt;/h1&gt;&lt;p style=&quot;font-size: 10px&quot;&gt;&lt;font style=&quot;font-size: 10px&quot;&gt;- User will input their long term goal description for 100 days&amp;nbsp; to accomplish.&lt;/font&gt;&lt;/p&gt;&lt;p style=&quot;font-size: 10px&quot;&gt;&lt;font style=&quot;font-size: 10px&quot;&gt;- also, there will be one option for challenge mode to accomplish goal.&lt;/font&gt;&lt;/p&gt;" style="text;html=1;strokeColor=none;fillColor=none;spacing=5;spacingTop=-20;whiteSpace=wrap;overflow=hidden;rounded=0;" parent="WIyWlLk6GJQsqaUBKTNV-1" vertex="1">
          <mxGeometry x="700" y="370" width="210" height="110" as="geometry" />
        </mxCell>
        <mxCell id="AL4Si43PXEjxfvqcPq0g-37" value="App Drawer" style="swimlane;rounded=1;shadow=1;glass=0;sketch=1;" parent="WIyWlLk6GJQsqaUBKTNV-1" vertex="1">
          <mxGeometry x="160" y="740" width="430" height="320" as="geometry">
            <mxRectangle x="170" y="840" width="130" height="23" as="alternateBounds" />
          </mxGeometry>
        </mxCell>
        <mxCell id="AL4Si43PXEjxfvqcPq0g-42" style="edgeStyle=orthogonalEdgeStyle;orthogonalLoop=1;jettySize=auto;html=1;exitX=1;exitY=0.5;exitDx=0;exitDy=0;entryX=0;entryY=0.5;entryDx=0;entryDy=0;curved=1;" parent="AL4Si43PXEjxfvqcPq0g-37" source="AL4Si43PXEjxfvqcPq0g-6" target="AL4Si43PXEjxfvqcPq0g-41" edge="1">
          <mxGeometry relative="1" as="geometry" />
        </mxCell>
        <mxCell id="AL4Si43PXEjxfvqcPq0g-6" value="Dashboard" style="whiteSpace=wrap;html=1;fillColor=#dae8fc;strokeColor=#6c8ebf;rounded=1;glass=0;shadow=1;sketch=1;" parent="AL4Si43PXEjxfvqcPq0g-37" vertex="1">
          <mxGeometry x="20" y="50" width="100" height="30" as="geometry" />
        </mxCell>
        <mxCell id="AL4Si43PXEjxfvqcPq0g-41" value="Dashboard" style="rounded=1;whiteSpace=wrap;html=1;fontSize=12;glass=0;strokeWidth=1;shadow=0;fillColor=#dae8fc;strokeColor=#6c8ebf;" parent="AL4Si43PXEjxfvqcPq0g-37" vertex="1">
          <mxGeometry x="230" y="45" width="120" height="40" as="geometry" />
        </mxCell>
        <mxCell id="AL4Si43PXEjxfvqcPq0g-49" value="Calendar" style="whiteSpace=wrap;html=1;fillColor=#dae8fc;strokeColor=#6c8ebf;rounded=1;glass=0;shadow=1;sketch=1;" parent="AL4Si43PXEjxfvqcPq0g-37" vertex="1">
          <mxGeometry x="20" y="207" width="100" height="30" as="geometry" />
        </mxCell>
        <mxCell id="AL4Si43PXEjxfvqcPq0g-50" value="100 day&#39;s Calendar" style="rounded=1;whiteSpace=wrap;html=1;fontSize=12;glass=0;strokeWidth=1;shadow=0;fillColor=#dae8fc;strokeColor=#6c8ebf;" parent="AL4Si43PXEjxfvqcPq0g-37" vertex="1">
          <mxGeometry x="230" y="202" width="120" height="40" as="geometry" />
        </mxCell>
        <mxCell id="AL4Si43PXEjxfvqcPq0g-48" style="edgeStyle=orthogonalEdgeStyle;orthogonalLoop=1;jettySize=auto;html=1;exitX=1;exitY=0.5;exitDx=0;exitDy=0;entryX=0;entryY=0.5;entryDx=0;entryDy=0;curved=1;" parent="AL4Si43PXEjxfvqcPq0g-37" source="AL4Si43PXEjxfvqcPq0g-49" target="AL4Si43PXEjxfvqcPq0g-50" edge="1">
          <mxGeometry relative="1" as="geometry" />
        </mxCell>
        <mxCell id="AL4Si43PXEjxfvqcPq0g-44" value="Tour" style="whiteSpace=wrap;html=1;fillColor=#dae8fc;strokeColor=#6c8ebf;rounded=1;glass=0;shadow=1;sketch=1;" parent="AL4Si43PXEjxfvqcPq0g-37" vertex="1">
          <mxGeometry x="21" y="159" width="100" height="30" as="geometry" />
        </mxCell>
        <mxCell id="AL4Si43PXEjxfvqcPq0g-45" value="App Tour" style="rounded=1;whiteSpace=wrap;html=1;fontSize=12;glass=0;strokeWidth=1;shadow=0;fillColor=#dae8fc;strokeColor=#6c8ebf;" parent="AL4Si43PXEjxfvqcPq0g-37" vertex="1">
          <mxGeometry x="231" y="154" width="120" height="40" as="geometry" />
        </mxCell>
        <mxCell id="AL4Si43PXEjxfvqcPq0g-43" style="edgeStyle=orthogonalEdgeStyle;orthogonalLoop=1;jettySize=auto;html=1;exitX=1;exitY=0.5;exitDx=0;exitDy=0;entryX=0;entryY=0.5;entryDx=0;entryDy=0;curved=1;" parent="AL4Si43PXEjxfvqcPq0g-37" source="AL4Si43PXEjxfvqcPq0g-44" target="AL4Si43PXEjxfvqcPq0g-45" edge="1">
          <mxGeometry relative="1" as="geometry" />
        </mxCell>
        <mxCell id="26RGHLy_EIvh3ak4dH7Z-0" value="Leader board" style="whiteSpace=wrap;html=1;fillColor=#dae8fc;strokeColor=#6c8ebf;rounded=1;glass=0;shadow=1;sketch=1;" vertex="1" parent="AL4Si43PXEjxfvqcPq0g-37">
          <mxGeometry x="21" y="257" width="100" height="30" as="geometry" />
        </mxCell>
        <mxCell id="26RGHLy_EIvh3ak4dH7Z-1" value="Daily Leaderboard" style="rounded=1;whiteSpace=wrap;html=1;fontSize=12;glass=0;strokeWidth=1;shadow=0;fillColor=#dae8fc;strokeColor=#6c8ebf;" vertex="1" parent="AL4Si43PXEjxfvqcPq0g-37">
          <mxGeometry x="231" y="252" width="120" height="40" as="geometry" />
        </mxCell>
        <mxCell id="26RGHLy_EIvh3ak4dH7Z-2" style="edgeStyle=orthogonalEdgeStyle;orthogonalLoop=1;jettySize=auto;html=1;exitX=1;exitY=0.5;exitDx=0;exitDy=0;entryX=0;entryY=0.5;entryDx=0;entryDy=0;curved=1;" edge="1" parent="AL4Si43PXEjxfvqcPq0g-37" source="26RGHLy_EIvh3ak4dH7Z-0" target="26RGHLy_EIvh3ak4dH7Z-1">
          <mxGeometry relative="1" as="geometry" />
        </mxCell>
        <mxCell id="oykxdmFOVGvdL7UeuPt0-1" value="Profile" style="whiteSpace=wrap;html=1;fillColor=#dae8fc;strokeColor=#6c8ebf;rounded=1;glass=0;shadow=1;sketch=1;" vertex="1" parent="AL4Si43PXEjxfvqcPq0g-37">
          <mxGeometry x="20" y="105" width="100" height="30" as="geometry" />
        </mxCell>
        <mxCell id="oykxdmFOVGvdL7UeuPt0-2" value="User Profile" style="rounded=1;whiteSpace=wrap;html=1;fontSize=12;glass=0;strokeWidth=1;shadow=0;fillColor=#dae8fc;strokeColor=#6c8ebf;" vertex="1" parent="AL4Si43PXEjxfvqcPq0g-37">
          <mxGeometry x="230" y="100" width="120" height="40" as="geometry" />
        </mxCell>
        <mxCell id="oykxdmFOVGvdL7UeuPt0-0" style="edgeStyle=orthogonalEdgeStyle;orthogonalLoop=1;jettySize=auto;html=1;exitX=1;exitY=0.5;exitDx=0;exitDy=0;entryX=0;entryY=0.5;entryDx=0;entryDy=0;curved=1;" edge="1" parent="AL4Si43PXEjxfvqcPq0g-37" source="oykxdmFOVGvdL7UeuPt0-1" target="oykxdmFOVGvdL7UeuPt0-2">
          <mxGeometry relative="1" as="geometry" />
        </mxCell>
        <mxCell id="AL4Si43PXEjxfvqcPq0g-71" style="edgeStyle=orthogonalEdgeStyle;rounded=1;orthogonalLoop=1;jettySize=auto;html=1;entryX=0;entryY=0.5;entryDx=0;entryDy=0;entryPerimeter=0;" parent="WIyWlLk6GJQsqaUBKTNV-1" source="AL4Si43PXEjxfvqcPq0g-45" target="AL4Si43PXEjxfvqcPq0g-64" edge="1">
          <mxGeometry relative="1" as="geometry" />
        </mxCell>
        <mxCell id="AL4Si43PXEjxfvqcPq0g-51" value="&lt;b&gt;Dashboard&lt;/b&gt;" style="shape=note;whiteSpace=wrap;html=1;backgroundOutline=1;darkOpacity=0.05;rounded=1;shadow=1;glass=0;sketch=1;container=1;align=center;size=20;" parent="WIyWlLk6GJQsqaUBKTNV-1" vertex="1" collapsed="1">
          <mxGeometry x="630" y="795" width="110" height="20" as="geometry">
            <mxRectangle x="630" y="760" width="281" height="420" as="alternateBounds" />
          </mxGeometry>
        </mxCell>
        <mxCell id="AL4Si43PXEjxfvqcPq0g-52" value="Today Task" style="swimlane;fontStyle=0;childLayout=stackLayout;horizontal=1;startSize=26;horizontalStack=0;resizeParent=1;resizeParentMax=0;resizeLast=0;collapsible=1;marginBottom=0;rounded=1;shadow=1;glass=0;sketch=1;" parent="AL4Si43PXEjxfvqcPq0g-51" vertex="1">
          <mxGeometry x="30" y="56" width="220" height="104" as="geometry" />
        </mxCell>
        <mxCell id="AL4Si43PXEjxfvqcPq0g-53" value="Task 1" style="text;strokeColor=none;fillColor=none;align=left;verticalAlign=top;spacingLeft=4;spacingRight=4;overflow=hidden;rotatable=0;points=[[0,0.5],[1,0.5]];portConstraint=eastwest;" parent="AL4Si43PXEjxfvqcPq0g-52" vertex="1">
          <mxGeometry y="26" width="220" height="26" as="geometry" />
        </mxCell>
        <mxCell id="AL4Si43PXEjxfvqcPq0g-54" value="Task 2" style="text;strokeColor=none;fillColor=none;align=left;verticalAlign=top;spacingLeft=4;spacingRight=4;overflow=hidden;rotatable=0;points=[[0,0.5],[1,0.5]];portConstraint=eastwest;" parent="AL4Si43PXEjxfvqcPq0g-52" vertex="1">
          <mxGeometry y="52" width="220" height="26" as="geometry" />
        </mxCell>
        <mxCell id="AL4Si43PXEjxfvqcPq0g-55" value="Task 3" style="text;strokeColor=none;fillColor=none;align=left;verticalAlign=top;spacingLeft=4;spacingRight=4;overflow=hidden;rotatable=0;points=[[0,0.5],[1,0.5]];portConstraint=eastwest;" parent="AL4Si43PXEjxfvqcPq0g-52" vertex="1">
          <mxGeometry y="78" width="220" height="26" as="geometry" />
        </mxCell>
        <mxCell id="AL4Si43PXEjxfvqcPq0g-56" value="Repeatation" style="strokeWidth=2;html=1;shape=mxgraph.flowchart.terminator;whiteSpace=wrap;rounded=1;shadow=1;glass=0;sketch=1;" parent="AL4Si43PXEjxfvqcPq0g-51" vertex="1">
          <mxGeometry x="65" y="200" width="150" height="40" as="geometry" />
        </mxCell>
        <mxCell id="AL4Si43PXEjxfvqcPq0g-60" value="You can add Evening goal after adding your repeatation section." style="text;html=1;strokeColor=none;fillColor=none;align=left;verticalAlign=middle;whiteSpace=wrap;rounded=0;shadow=1;glass=0;sketch=1;" parent="AL4Si43PXEjxfvqcPq0g-51" vertex="1">
          <mxGeometry x="30" y="270" width="190" height="70" as="geometry" />
        </mxCell>
        <mxCell id="AL4Si43PXEjxfvqcPq0g-63" style="edgeStyle=orthogonalEdgeStyle;rounded=1;orthogonalLoop=1;jettySize=auto;html=1;entryX=0;entryY=0.5;entryDx=0;entryDy=0;entryPerimeter=0;" parent="WIyWlLk6GJQsqaUBKTNV-1" source="AL4Si43PXEjxfvqcPq0g-41" target="AL4Si43PXEjxfvqcPq0g-51" edge="1">
          <mxGeometry relative="1" as="geometry" />
        </mxCell>
        <mxCell id="AL4Si43PXEjxfvqcPq0g-64" value="&lt;b&gt;Application Tour&lt;/b&gt;" style="shape=note;whiteSpace=wrap;html=1;backgroundOutline=1;darkOpacity=0.05;rounded=1;shadow=1;glass=0;sketch=1;container=1;align=center;size=20;" parent="WIyWlLk6GJQsqaUBKTNV-1" vertex="1" collapsed="1">
          <mxGeometry x="630" y="894" width="140" height="20" as="geometry">
            <mxRectangle x="630" y="817" width="281" height="420" as="alternateBounds" />
          </mxGeometry>
        </mxCell>
        <mxCell id="AL4Si43PXEjxfvqcPq0g-70" value="This screen will show up overview of app and how you can use app to accomplish the goal.&lt;br&gt;&lt;br&gt;Which is having one example of 1st day and 10 day review example.&lt;br&gt;" style="text;html=1;strokeColor=none;fillColor=none;align=left;verticalAlign=middle;whiteSpace=wrap;rounded=0;shadow=1;glass=0;sketch=1;" parent="AL4Si43PXEjxfvqcPq0g-64" vertex="1">
          <mxGeometry x="30" y="43" width="190" height="107" as="geometry" />
        </mxCell>
        <mxCell id="AL4Si43PXEjxfvqcPq0g-72" value="&lt;b&gt;Calendar&lt;/b&gt;" style="shape=note;whiteSpace=wrap;html=1;backgroundOutline=1;darkOpacity=0.05;rounded=1;shadow=1;glass=0;sketch=1;container=1;align=center;size=20;" parent="WIyWlLk6GJQsqaUBKTNV-1" vertex="1" collapsed="1">
          <mxGeometry x="630" y="957" width="140" height="20" as="geometry">
            <mxRectangle x="630" y="880" width="281" height="420" as="alternateBounds" />
          </mxGeometry>
        </mxCell>
        <mxCell id="AL4Si43PXEjxfvqcPq0g-74" value="Calendar" style="shape=table;startSize=30;container=1;collapsible=0;childLayout=tableLayout;fontStyle=1;align=center;rounded=1;shadow=1;glass=0;sketch=1;jiggle=0.5;arcSize=15;labelBackgroundColor=#ffffff;" parent="AL4Si43PXEjxfvqcPq0g-72" vertex="1">
          <mxGeometry x="20" y="50" width="240" height="350" as="geometry" />
        </mxCell>
        <mxCell id="AL4Si43PXEjxfvqcPq0g-75" value="" style="shape=partialRectangle;html=1;whiteSpace=wrap;collapsible=0;dropTarget=0;pointerEvents=0;fillColor=none;top=0;left=0;bottom=0;right=0;points=[[0,0.5],[1,0.5]];portConstraint=eastwest;" parent="AL4Si43PXEjxfvqcPq0g-74" vertex="1">
          <mxGeometry y="30" width="240" height="40" as="geometry" />
        </mxCell>
        <mxCell id="AL4Si43PXEjxfvqcPq0g-76" value="1" style="shape=partialRectangle;html=1;whiteSpace=wrap;connectable=0;fillColor=none;top=0;left=0;bottom=0;right=0;overflow=hidden;" parent="AL4Si43PXEjxfvqcPq0g-75" vertex="1">
          <mxGeometry width="60" height="40" as="geometry" />
        </mxCell>
        <mxCell id="AL4Si43PXEjxfvqcPq0g-77" value="2" style="shape=partialRectangle;html=1;whiteSpace=wrap;connectable=0;fillColor=none;top=0;left=0;bottom=0;right=0;overflow=hidden;" parent="AL4Si43PXEjxfvqcPq0g-75" vertex="1">
          <mxGeometry x="60" width="60" height="40" as="geometry" />
        </mxCell>
        <mxCell id="AL4Si43PXEjxfvqcPq0g-78" value="3" style="shape=partialRectangle;html=1;whiteSpace=wrap;connectable=0;fillColor=none;top=0;left=0;bottom=0;right=0;overflow=hidden;" parent="AL4Si43PXEjxfvqcPq0g-75" vertex="1">
          <mxGeometry x="120" width="60" height="40" as="geometry" />
        </mxCell>
        <mxCell id="AL4Si43PXEjxfvqcPq0g-121" value="4" style="shape=partialRectangle;html=1;whiteSpace=wrap;connectable=0;fillColor=none;top=0;left=0;bottom=0;right=0;overflow=hidden;" parent="AL4Si43PXEjxfvqcPq0g-75" vertex="1">
          <mxGeometry x="180" width="60" height="40" as="geometry" />
        </mxCell>
        <mxCell id="AL4Si43PXEjxfvqcPq0g-79" value="" style="shape=partialRectangle;html=1;whiteSpace=wrap;collapsible=0;dropTarget=0;pointerEvents=0;fillColor=none;top=0;left=0;bottom=0;right=0;points=[[0,0.5],[1,0.5]];portConstraint=eastwest;" parent="AL4Si43PXEjxfvqcPq0g-74" vertex="1">
          <mxGeometry y="70" width="240" height="40" as="geometry" />
        </mxCell>
        <mxCell id="AL4Si43PXEjxfvqcPq0g-80" value="5" style="shape=partialRectangle;html=1;whiteSpace=wrap;connectable=0;fillColor=none;top=0;left=0;bottom=0;right=0;overflow=hidden;" parent="AL4Si43PXEjxfvqcPq0g-79" vertex="1">
          <mxGeometry width="60" height="40" as="geometry" />
        </mxCell>
        <mxCell id="AL4Si43PXEjxfvqcPq0g-81" value="6" style="shape=partialRectangle;html=1;whiteSpace=wrap;connectable=0;fillColor=none;top=0;left=0;bottom=0;right=0;overflow=hidden;" parent="AL4Si43PXEjxfvqcPq0g-79" vertex="1">
          <mxGeometry x="60" width="60" height="40" as="geometry" />
        </mxCell>
        <mxCell id="AL4Si43PXEjxfvqcPq0g-82" value="7" style="shape=partialRectangle;html=1;whiteSpace=wrap;connectable=0;fillColor=none;top=0;left=0;bottom=0;right=0;overflow=hidden;" parent="AL4Si43PXEjxfvqcPq0g-79" vertex="1">
          <mxGeometry x="120" width="60" height="40" as="geometry" />
        </mxCell>
        <mxCell id="AL4Si43PXEjxfvqcPq0g-122" value="8" style="shape=partialRectangle;html=1;whiteSpace=wrap;connectable=0;fillColor=none;top=0;left=0;bottom=0;right=0;overflow=hidden;" parent="AL4Si43PXEjxfvqcPq0g-79" vertex="1">
          <mxGeometry x="180" width="60" height="40" as="geometry" />
        </mxCell>
        <mxCell id="AL4Si43PXEjxfvqcPq0g-83" value="" style="shape=partialRectangle;html=1;whiteSpace=wrap;collapsible=0;dropTarget=0;pointerEvents=0;fillColor=none;top=0;left=0;bottom=0;right=0;points=[[0,0.5],[1,0.5]];portConstraint=eastwest;" parent="AL4Si43PXEjxfvqcPq0g-74" vertex="1">
          <mxGeometry y="110" width="240" height="40" as="geometry" />
        </mxCell>
        <mxCell id="AL4Si43PXEjxfvqcPq0g-84" value="9" style="shape=partialRectangle;html=1;whiteSpace=wrap;connectable=0;fillColor=none;top=0;left=0;bottom=0;right=0;overflow=hidden;" parent="AL4Si43PXEjxfvqcPq0g-83" vertex="1">
          <mxGeometry width="60" height="40" as="geometry" />
        </mxCell>
        <mxCell id="AL4Si43PXEjxfvqcPq0g-85" value="10" style="shape=partialRectangle;html=1;whiteSpace=wrap;connectable=0;top=0;left=0;bottom=0;right=0;overflow=hidden;fillColor=#CCCCCC;" parent="AL4Si43PXEjxfvqcPq0g-83" vertex="1">
          <mxGeometry x="60" width="60" height="40" as="geometry" />
        </mxCell>
        <mxCell id="AL4Si43PXEjxfvqcPq0g-86" value="11" style="shape=partialRectangle;html=1;whiteSpace=wrap;connectable=0;fillColor=none;top=0;left=0;bottom=0;right=0;overflow=hidden;" parent="AL4Si43PXEjxfvqcPq0g-83" vertex="1">
          <mxGeometry x="120" width="60" height="40" as="geometry" />
        </mxCell>
        <mxCell id="AL4Si43PXEjxfvqcPq0g-123" value="12" style="shape=partialRectangle;html=1;whiteSpace=wrap;connectable=0;fillColor=none;top=0;left=0;bottom=0;right=0;overflow=hidden;" parent="AL4Si43PXEjxfvqcPq0g-83" vertex="1">
          <mxGeometry x="180" width="60" height="40" as="geometry" />
        </mxCell>
        <mxCell id="AL4Si43PXEjxfvqcPq0g-117" style="shape=partialRectangle;html=1;whiteSpace=wrap;collapsible=0;dropTarget=0;pointerEvents=0;fillColor=none;top=0;left=0;bottom=0;right=0;points=[[0,0.5],[1,0.5]];portConstraint=eastwest;" parent="AL4Si43PXEjxfvqcPq0g-74" vertex="1">
          <mxGeometry y="150" width="240" height="40" as="geometry" />
        </mxCell>
        <mxCell id="AL4Si43PXEjxfvqcPq0g-118" value="13" style="shape=partialRectangle;html=1;whiteSpace=wrap;connectable=0;fillColor=none;top=0;left=0;bottom=0;right=0;overflow=hidden;" parent="AL4Si43PXEjxfvqcPq0g-117" vertex="1">
          <mxGeometry width="60" height="40" as="geometry" />
        </mxCell>
        <mxCell id="AL4Si43PXEjxfvqcPq0g-119" value="14" style="shape=partialRectangle;html=1;whiteSpace=wrap;connectable=0;fillColor=none;top=0;left=0;bottom=0;right=0;overflow=hidden;" parent="AL4Si43PXEjxfvqcPq0g-117" vertex="1">
          <mxGeometry x="60" width="60" height="40" as="geometry" />
        </mxCell>
        <mxCell id="AL4Si43PXEjxfvqcPq0g-120" value="15" style="shape=partialRectangle;html=1;whiteSpace=wrap;connectable=0;fillColor=none;top=0;left=0;bottom=0;right=0;overflow=hidden;" parent="AL4Si43PXEjxfvqcPq0g-117" vertex="1">
          <mxGeometry x="120" width="60" height="40" as="geometry" />
        </mxCell>
        <mxCell id="AL4Si43PXEjxfvqcPq0g-124" value="16" style="shape=partialRectangle;html=1;whiteSpace=wrap;connectable=0;fillColor=none;top=0;left=0;bottom=0;right=0;overflow=hidden;" parent="AL4Si43PXEjxfvqcPq0g-117" vertex="1">
          <mxGeometry x="180" width="60" height="40" as="geometry" />
        </mxCell>
        <mxCell id="AL4Si43PXEjxfvqcPq0g-113" style="shape=partialRectangle;html=1;whiteSpace=wrap;collapsible=0;dropTarget=0;pointerEvents=0;fillColor=none;top=0;left=0;bottom=0;right=0;points=[[0,0.5],[1,0.5]];portConstraint=eastwest;" parent="AL4Si43PXEjxfvqcPq0g-74" vertex="1">
          <mxGeometry y="190" width="240" height="40" as="geometry" />
        </mxCell>
        <mxCell id="AL4Si43PXEjxfvqcPq0g-114" value="17" style="shape=partialRectangle;html=1;whiteSpace=wrap;connectable=0;fillColor=none;top=0;left=0;bottom=0;right=0;overflow=hidden;" parent="AL4Si43PXEjxfvqcPq0g-113" vertex="1">
          <mxGeometry width="60" height="40" as="geometry" />
        </mxCell>
        <mxCell id="AL4Si43PXEjxfvqcPq0g-115" value="18" style="shape=partialRectangle;html=1;whiteSpace=wrap;connectable=0;fillColor=none;top=0;left=0;bottom=0;right=0;overflow=hidden;" parent="AL4Si43PXEjxfvqcPq0g-113" vertex="1">
          <mxGeometry x="60" width="60" height="40" as="geometry" />
        </mxCell>
        <mxCell id="AL4Si43PXEjxfvqcPq0g-116" value="19" style="shape=partialRectangle;html=1;whiteSpace=wrap;connectable=0;fillColor=none;top=0;left=0;bottom=0;right=0;overflow=hidden;" parent="AL4Si43PXEjxfvqcPq0g-113" vertex="1">
          <mxGeometry x="120" width="60" height="40" as="geometry" />
        </mxCell>
        <mxCell id="AL4Si43PXEjxfvqcPq0g-125" value="&lt;span style=&quot;&quot;&gt;20&lt;/span&gt;" style="shape=partialRectangle;html=1;connectable=0;top=0;left=0;bottom=0;right=0;overflow=hidden;labelBackgroundColor=#B3B3B3;labelBorderColor=none;fillColor=#CCCCCC;" parent="AL4Si43PXEjxfvqcPq0g-113" vertex="1">
          <mxGeometry x="180" width="60" height="40" as="geometry" />
        </mxCell>
        <mxCell id="AL4Si43PXEjxfvqcPq0g-109" style="shape=partialRectangle;html=1;whiteSpace=wrap;collapsible=0;dropTarget=0;pointerEvents=0;fillColor=none;top=0;left=0;bottom=0;right=0;points=[[0,0.5],[1,0.5]];portConstraint=eastwest;" parent="AL4Si43PXEjxfvqcPq0g-74" vertex="1">
          <mxGeometry y="230" width="240" height="40" as="geometry" />
        </mxCell>
        <mxCell id="AL4Si43PXEjxfvqcPq0g-110" value="21" style="shape=partialRectangle;html=1;whiteSpace=wrap;connectable=0;fillColor=none;top=0;left=0;bottom=0;right=0;overflow=hidden;" parent="AL4Si43PXEjxfvqcPq0g-109" vertex="1">
          <mxGeometry width="60" height="40" as="geometry" />
        </mxCell>
        <mxCell id="AL4Si43PXEjxfvqcPq0g-111" value="22" style="shape=partialRectangle;html=1;whiteSpace=wrap;connectable=0;fillColor=none;top=0;left=0;bottom=0;right=0;overflow=hidden;" parent="AL4Si43PXEjxfvqcPq0g-109" vertex="1">
          <mxGeometry x="60" width="60" height="40" as="geometry" />
        </mxCell>
        <mxCell id="AL4Si43PXEjxfvqcPq0g-112" value="23" style="shape=partialRectangle;html=1;whiteSpace=wrap;connectable=0;fillColor=none;top=0;left=0;bottom=0;right=0;overflow=hidden;" parent="AL4Si43PXEjxfvqcPq0g-109" vertex="1">
          <mxGeometry x="120" width="60" height="40" as="geometry" />
        </mxCell>
        <mxCell id="AL4Si43PXEjxfvqcPq0g-126" value="24" style="shape=partialRectangle;html=1;whiteSpace=wrap;connectable=0;fillColor=none;top=0;left=0;bottom=0;right=0;overflow=hidden;" parent="AL4Si43PXEjxfvqcPq0g-109" vertex="1">
          <mxGeometry x="180" width="60" height="40" as="geometry" />
        </mxCell>
        <mxCell id="AL4Si43PXEjxfvqcPq0g-105" style="shape=partialRectangle;html=1;whiteSpace=wrap;collapsible=0;dropTarget=0;pointerEvents=0;fillColor=none;top=0;left=0;bottom=0;right=0;points=[[0,0.5],[1,0.5]];portConstraint=eastwest;" parent="AL4Si43PXEjxfvqcPq0g-74" vertex="1">
          <mxGeometry y="270" width="240" height="40" as="geometry" />
        </mxCell>
        <mxCell id="AL4Si43PXEjxfvqcPq0g-106" value="25" style="shape=partialRectangle;html=1;whiteSpace=wrap;connectable=0;fillColor=none;top=0;left=0;bottom=0;right=0;overflow=hidden;" parent="AL4Si43PXEjxfvqcPq0g-105" vertex="1">
          <mxGeometry width="60" height="40" as="geometry" />
        </mxCell>
        <mxCell id="AL4Si43PXEjxfvqcPq0g-107" value="26" style="shape=partialRectangle;html=1;whiteSpace=wrap;connectable=0;fillColor=none;top=0;left=0;bottom=0;right=0;overflow=hidden;" parent="AL4Si43PXEjxfvqcPq0g-105" vertex="1">
          <mxGeometry x="60" width="60" height="40" as="geometry" />
        </mxCell>
        <mxCell id="AL4Si43PXEjxfvqcPq0g-108" value="27" style="shape=partialRectangle;html=1;whiteSpace=wrap;connectable=0;fillColor=none;top=0;left=0;bottom=0;right=0;overflow=hidden;" parent="AL4Si43PXEjxfvqcPq0g-105" vertex="1">
          <mxGeometry x="120" width="60" height="40" as="geometry" />
        </mxCell>
        <mxCell id="AL4Si43PXEjxfvqcPq0g-127" value="28" style="shape=partialRectangle;html=1;whiteSpace=wrap;connectable=0;fillColor=none;top=0;left=0;bottom=0;right=0;overflow=hidden;" parent="AL4Si43PXEjxfvqcPq0g-105" vertex="1">
          <mxGeometry x="180" width="60" height="40" as="geometry" />
        </mxCell>
        <mxCell id="AL4Si43PXEjxfvqcPq0g-101" style="shape=partialRectangle;html=1;whiteSpace=wrap;collapsible=0;dropTarget=0;pointerEvents=0;fillColor=none;top=0;left=0;bottom=0;right=0;points=[[0,0.5],[1,0.5]];portConstraint=eastwest;" parent="AL4Si43PXEjxfvqcPq0g-74" vertex="1">
          <mxGeometry y="310" width="240" height="40" as="geometry" />
        </mxCell>
        <mxCell id="AL4Si43PXEjxfvqcPq0g-102" value="29" style="shape=partialRectangle;html=1;whiteSpace=wrap;connectable=0;fillColor=none;top=0;left=0;bottom=0;right=0;overflow=hidden;" parent="AL4Si43PXEjxfvqcPq0g-101" vertex="1">
          <mxGeometry width="60" height="40" as="geometry" />
        </mxCell>
        <mxCell id="AL4Si43PXEjxfvqcPq0g-103" value="30" style="shape=partialRectangle;html=1;whiteSpace=wrap;connectable=0;top=0;left=0;bottom=0;right=0;overflow=hidden;fillColor=#CCCCCC;" parent="AL4Si43PXEjxfvqcPq0g-101" vertex="1">
          <mxGeometry x="60" width="60" height="40" as="geometry" />
        </mxCell>
        <mxCell id="AL4Si43PXEjxfvqcPq0g-104" value="31" style="shape=partialRectangle;html=1;whiteSpace=wrap;connectable=0;fillColor=none;top=0;left=0;bottom=0;right=0;overflow=hidden;" parent="AL4Si43PXEjxfvqcPq0g-101" vertex="1">
          <mxGeometry x="120" width="60" height="40" as="geometry" />
        </mxCell>
        <mxCell id="AL4Si43PXEjxfvqcPq0g-128" value="32" style="shape=partialRectangle;html=1;whiteSpace=wrap;connectable=0;fillColor=none;top=0;left=0;bottom=0;right=0;overflow=hidden;" parent="AL4Si43PXEjxfvqcPq0g-101" vertex="1">
          <mxGeometry x="180" width="60" height="40" as="geometry" />
        </mxCell>
        <mxCell id="AL4Si43PXEjxfvqcPq0g-129" style="edgeStyle=orthogonalEdgeStyle;rounded=1;orthogonalLoop=1;jettySize=auto;html=1;exitX=1;exitY=0.5;exitDx=0;exitDy=0;entryX=0;entryY=0.5;entryDx=0;entryDy=0;entryPerimeter=0;fontColor=#000000;startSize=30;" parent="WIyWlLk6GJQsqaUBKTNV-1" source="AL4Si43PXEjxfvqcPq0g-50" target="AL4Si43PXEjxfvqcPq0g-72" edge="1">
          <mxGeometry relative="1" as="geometry" />
        </mxCell>
        <mxCell id="26RGHLy_EIvh3ak4dH7Z-45" style="edgeStyle=orthogonalEdgeStyle;orthogonalLoop=1;jettySize=auto;html=1;entryX=0;entryY=0.5;entryDx=0;entryDy=0;entryPerimeter=0;curved=1;" edge="1" parent="WIyWlLk6GJQsqaUBKTNV-1" source="26RGHLy_EIvh3ak4dH7Z-1" target="26RGHLy_EIvh3ak4dH7Z-3">
          <mxGeometry relative="1" as="geometry" />
        </mxCell>
        <mxCell id="26RGHLy_EIvh3ak4dH7Z-3" value="&lt;b&gt;Leaderboard&lt;/b&gt;" style="shape=note;whiteSpace=wrap;html=1;backgroundOutline=1;darkOpacity=0.05;rounded=1;shadow=1;glass=0;sketch=1;container=1;align=center;size=20;" vertex="1" collapsed="1" parent="WIyWlLk6GJQsqaUBKTNV-1">
          <mxGeometry x="630" y="1012" width="140" height="20" as="geometry">
            <mxRectangle x="630" y="935" width="281" height="420" as="alternateBounds" />
          </mxGeometry>
        </mxCell>
        <mxCell id="26RGHLy_EIvh3ak4dH7Z-46" value="" style="shape=image;html=1;verticalAlign=top;verticalLabelPosition=bottom;labelBackgroundColor=#ffffff;imageAspect=0;aspect=fixed;image=https://cdn0.iconfinder.com/data/icons/web-development-and-studio/512/63_Winner_Business_finish_leader_leadership_man_race-128.png" vertex="1" parent="26RGHLy_EIvh3ak4dH7Z-3">
          <mxGeometry x="103" y="25" width="75" height="75" as="geometry" />
        </mxCell>
        <mxCell id="26RGHLy_EIvh3ak4dH7Z-47" value="" style="html=1;shadow=0;dashed=0;shape=mxgraph.bootstrap.rrect;rSize=5;strokeColor=#DFDFDF;html=1;whiteSpace=wrap;fillColor=#FFFFFF;fontColor=#000000;" vertex="1" parent="26RGHLy_EIvh3ak4dH7Z-3">
          <mxGeometry x="40.5" y="105" width="200" height="150" as="geometry" />
        </mxCell>
        <mxCell id="26RGHLy_EIvh3ak4dH7Z-48" value="Cras justo odio" style="html=1;shadow=0;dashed=0;shape=mxgraph.bootstrap.topButton;rSize=5;strokeColor=none;fillColor=#0085FC;fontColor=#ffffff;perimeter=none;whiteSpace=wrap;resizeWidth=1;align=left;spacing=10;" vertex="1" parent="26RGHLy_EIvh3ak4dH7Z-47">
          <mxGeometry width="200" height="30" relative="1" as="geometry" />
        </mxCell>
        <mxCell id="26RGHLy_EIvh3ak4dH7Z-49" value="Dapibus ac facilisis in" style="strokeColor=inherit;fillColor=inherit;gradientColor=inherit;fontColor=inherit;html=1;shadow=0;dashed=0;perimeter=none;whiteSpace=wrap;resizeWidth=1;align=left;spacing=10;" vertex="1" parent="26RGHLy_EIvh3ak4dH7Z-47">
          <mxGeometry width="200" height="30" relative="1" as="geometry">
            <mxPoint y="30" as="offset" />
          </mxGeometry>
        </mxCell>
        <mxCell id="26RGHLy_EIvh3ak4dH7Z-50" value="Morbi leo risus" style="strokeColor=inherit;fillColor=inherit;gradientColor=inherit;fontColor=inherit;html=1;shadow=0;dashed=0;perimeter=none;whiteSpace=wrap;resizeWidth=1;align=left;spacing=10;" vertex="1" parent="26RGHLy_EIvh3ak4dH7Z-47">
          <mxGeometry width="200" height="30" relative="1" as="geometry">
            <mxPoint y="60" as="offset" />
          </mxGeometry>
        </mxCell>
        <mxCell id="26RGHLy_EIvh3ak4dH7Z-51" value="Porta ac consectetur ac" style="strokeColor=inherit;fillColor=inherit;gradientColor=inherit;fontColor=inherit;html=1;shadow=0;dashed=0;perimeter=none;whiteSpace=wrap;resizeWidth=1;align=left;spacing=10;" vertex="1" parent="26RGHLy_EIvh3ak4dH7Z-47">
          <mxGeometry width="200" height="30" relative="1" as="geometry">
            <mxPoint y="90" as="offset" />
          </mxGeometry>
        </mxCell>
        <mxCell id="26RGHLy_EIvh3ak4dH7Z-58" value="Dapibus ac facilisis in" style="strokeColor=inherit;fillColor=inherit;gradientColor=inherit;fontColor=inherit;html=1;shadow=0;dashed=0;perimeter=none;whiteSpace=wrap;resizeWidth=1;align=left;spacing=10;" vertex="1" parent="26RGHLy_EIvh3ak4dH7Z-47">
          <mxGeometry y="120" width="200" height="30" as="geometry" />
        </mxCell>
        <mxCell id="26RGHLy_EIvh3ak4dH7Z-53" value="Vestibulum at eros" style="html=1;shadow=0;dashed=0;shape=mxgraph.bootstrap.bottomButton;rSize=5;perimeter=none;whiteSpace=wrap;resizeWidth=1;resizeHeight=0;align=left;spacing=10;fillColor=none;strokeColor=#E6E6E6;" vertex="1" parent="26RGHLy_EIvh3ak4dH7Z-3">
          <mxGeometry x="40.5" y="375" width="200" height="30" as="geometry" />
        </mxCell>
        <mxCell id="26RGHLy_EIvh3ak4dH7Z-56" value="Porta ac consectetur ac" style="html=1;shadow=0;dashed=0;perimeter=none;whiteSpace=wrap;resizeWidth=1;align=left;spacing=10;fillColor=none;strokeColor=#E6E6E6;" vertex="1" parent="26RGHLy_EIvh3ak4dH7Z-3">
          <mxGeometry x="40.5" y="345" width="200" height="30" as="geometry" />
        </mxCell>
        <mxCell id="26RGHLy_EIvh3ak4dH7Z-55" value="Porta ac consectetur ac" style="html=1;shadow=0;dashed=0;perimeter=none;whiteSpace=wrap;resizeWidth=1;align=left;spacing=10;rounded=0;fillColor=none;strokeColor=#E6E6E6;" vertex="1" parent="26RGHLy_EIvh3ak4dH7Z-3">
          <mxGeometry x="40.5" y="315" width="200" height="30" as="geometry" />
        </mxCell>
        <mxCell id="26RGHLy_EIvh3ak4dH7Z-54" value="Porta ac consectetur ac" style="html=1;shadow=0;perimeter=none;whiteSpace=wrap;resizeWidth=1;align=left;spacing=10;fillColor=none;strokeColor=#E6E6E6;" vertex="1" parent="26RGHLy_EIvh3ak4dH7Z-3">
          <mxGeometry x="40.5" y="285" width="200" height="30" as="geometry" />
        </mxCell>
        <mxCell id="26RGHLy_EIvh3ak4dH7Z-60" style="edgeStyle=orthogonalEdgeStyle;rounded=1;orthogonalLoop=1;jettySize=auto;html=1;exitX=0;exitY=0.5;exitDx=0;exitDy=0;" edge="1" parent="WIyWlLk6GJQsqaUBKTNV-1" source="26RGHLy_EIvh3ak4dH7Z-59" target="26RGHLy_EIvh3ak4dH7Z-3">
          <mxGeometry relative="1" as="geometry" />
        </mxCell>
        <mxCell id="26RGHLy_EIvh3ak4dH7Z-59" value="&lt;h1&gt;Leaderboard&lt;/h1&gt;&lt;p&gt;Leaderboard section will show your rank and overall score.&lt;/p&gt;&lt;p&gt;leaderboard ranking will be based on free and challenged users performance.&lt;/p&gt;" style="text;html=1;strokeColor=none;fillColor=none;spacing=5;spacingTop=-20;whiteSpace=wrap;overflow=hidden;rounded=0;" vertex="1" parent="WIyWlLk6GJQsqaUBKTNV-1">
          <mxGeometry x="880" y="992" width="190" height="135" as="geometry" />
        </mxCell>
        <mxCell id="oykxdmFOVGvdL7UeuPt0-10" value="&lt;b&gt;User Profile&lt;/b&gt;" style="shape=note;whiteSpace=wrap;html=1;backgroundOutline=1;darkOpacity=0.05;rounded=1;shadow=1;glass=0;sketch=1;container=1;align=center;size=20;" vertex="1" collapsed="1" parent="WIyWlLk6GJQsqaUBKTNV-1">
          <mxGeometry x="630" y="850" width="140" height="20" as="geometry">
            <mxRectangle x="630" y="850" width="281" height="420" as="alternateBounds" />
          </mxGeometry>
        </mxCell>
        <mxCell id="oykxdmFOVGvdL7UeuPt0-11" value="" style="shape=image;html=1;verticalAlign=top;verticalLabelPosition=bottom;labelBackgroundColor=#ffffff;imageAspect=0;aspect=fixed;image=https://cdn0.iconfinder.com/data/icons/web-development-and-studio/512/63_Winner_Business_finish_leader_leadership_man_race-128.png" vertex="1" parent="oykxdmFOVGvdL7UeuPt0-10">
          <mxGeometry x="103" y="25" width="75" height="75" as="geometry" />
        </mxCell>
        <mxCell id="oykxdmFOVGvdL7UeuPt0-23" style="edgeStyle=orthogonalEdgeStyle;rounded=1;orthogonalLoop=1;jettySize=auto;html=1;entryX=0;entryY=0.5;entryDx=0;entryDy=0;entryPerimeter=0;exitX=1;exitY=0.5;exitDx=0;exitDy=0;" edge="1" parent="WIyWlLk6GJQsqaUBKTNV-1" source="oykxdmFOVGvdL7UeuPt0-2" target="oykxdmFOVGvdL7UeuPt0-10">
          <mxGeometry relative="1" as="geometry">
            <mxPoint x="521" y="924" as="sourcePoint" />
            <mxPoint x="640" y="914" as="targetPoint" />
          </mxGeometry>
        </mxCell>
      </root>
    </mxGraphModel>
  </diagram>
  <diagram id="-5H3E7traPtNNmjXu_ho" name="Dashboard - Goal">
    <mxGraphModel dx="829" dy="501" grid="1" gridSize="10" guides="1" tooltips="1" connect="1" arrows="1" fold="1" page="1" pageScale="1" pageWidth="827" pageHeight="1169" math="0" shadow="0">
      <root>
        <mxCell id="Y6u1Pzv9lawjL46MXB87-0" />
        <mxCell id="Y6u1Pzv9lawjL46MXB87-1" parent="Y6u1Pzv9lawjL46MXB87-0" />
        <mxCell id="XDbsi1JpykNqmyg2B_e5-3" value="" style="edgeStyle=none;rounded=1;orthogonalLoop=1;jettySize=auto;html=1;endArrow=none;endFill=0;strokeColor=#000000;" edge="1" parent="Y6u1Pzv9lawjL46MXB87-1" source="SWR7fmxyppXxOml3gVJv-5" target="nrIPhPpeLICr3U7Qrveo-0">
          <mxGeometry relative="1" as="geometry" />
        </mxCell>
        <mxCell id="SWR7fmxyppXxOml3gVJv-5" value="" style="strokeWidth=1;shadow=0;dashed=0;align=center;html=1;shape=mxgraph.mockup.forms.rrect;rSize=0;strokeColor=#999999;fillColor=#ffffff;rounded=0;" vertex="1" parent="Y6u1Pzv9lawjL46MXB87-1">
          <mxGeometry x="100" y="140" width="210" height="300" as="geometry" />
        </mxCell>
        <mxCell id="SWR7fmxyppXxOml3gVJv-6" value="&lt;b&gt;My Today Day Goal&lt;/b&gt;" style="strokeWidth=1;shadow=0;dashed=0;align=center;html=1;shape=mxgraph.mockup.forms.anchor;fontSize=12;fontColor=#666666;align=left;resizeWidth=1;spacingLeft=0;" vertex="1" parent="SWR7fmxyppXxOml3gVJv-5">
          <mxGeometry width="42.857142857142854" height="20" relative="1" as="geometry">
            <mxPoint x="10" y="10" as="offset" />
          </mxGeometry>
        </mxCell>
        <mxCell id="SWR7fmxyppXxOml3gVJv-7" value="" style="shape=line;strokeColor=#ddeeff;strokeWidth=2;html=1;resizeWidth=1;" vertex="1" parent="SWR7fmxyppXxOml3gVJv-5">
          <mxGeometry width="77.14285714285714" height="10" relative="1" as="geometry">
            <mxPoint x="10" y="30" as="offset" />
          </mxGeometry>
        </mxCell>
        <mxCell id="SWR7fmxyppXxOml3gVJv-16" value="Submit" style="strokeWidth=1;shadow=0;dashed=0;align=center;html=1;shape=mxgraph.mockup.forms.rrect;rSize=5;strokeColor=none;fontColor=#ffffff;fillColor=#66bbff;fontSize=16;fontStyle=1;" vertex="1" parent="SWR7fmxyppXxOml3gVJv-5">
          <mxGeometry y="1" width="80" height="21" relative="1" as="geometry">
            <mxPoint x="20" y="-41" as="offset" />
          </mxGeometry>
        </mxCell>
        <mxCell id="SWR7fmxyppXxOml3gVJv-17" value="&lt;span style=&quot;font-weight: normal&quot;&gt;I am great-full for&lt;/span&gt;" style="fillColor=none;strokeColor=none;html=1;fontSize=11;fontStyle=0;align=left;fontColor=#596780;fontStyle=1;fontSize=11;rounded=0;" vertex="1" parent="SWR7fmxyppXxOml3gVJv-5">
          <mxGeometry x="4.285714285714286" y="40" width="102.85714285714285" height="20" as="geometry" />
        </mxCell>
        <mxCell id="SWR7fmxyppXxOml3gVJv-18" value="" style="rounded=1;arcSize=9;fillColor=#ffffff;align=left;spacingLeft=5;strokeColor=#4C9AFF;html=1;strokeWidth=2;fontSize=12" vertex="1" parent="SWR7fmxyppXxOml3gVJv-5">
          <mxGeometry x="4.29" y="60" width="195.71" height="17" as="geometry" />
        </mxCell>
        <mxCell id="SWR7fmxyppXxOml3gVJv-20" value="&lt;span style=&quot;font-weight: normal&quot;&gt;In 99 days i will&lt;/span&gt;" style="fillColor=none;strokeColor=none;html=1;fontSize=11;fontStyle=0;align=left;fontColor=#596780;fontStyle=1;fontSize=11;rounded=0;" vertex="1" parent="SWR7fmxyppXxOml3gVJv-5">
          <mxGeometry x="4.285714285714292" y="90" width="102.85714285714285" height="20" as="geometry" />
        </mxCell>
        <mxCell id="SWR7fmxyppXxOml3gVJv-21" value="" style="rounded=1;arcSize=9;fillColor=#ffffff;align=left;spacingLeft=5;strokeColor=#4C9AFF;html=1;strokeWidth=2;fontSize=12" vertex="1" parent="SWR7fmxyppXxOml3gVJv-5">
          <mxGeometry x="4.290000000000006" y="110" width="195.71" height="17" as="geometry" />
        </mxCell>
        <mxCell id="SWR7fmxyppXxOml3gVJv-22" value="&lt;span style=&quot;font-weight: normal&quot;&gt;to achieve this i will&amp;nbsp;&lt;/span&gt;" style="fillColor=none;strokeColor=none;html=1;fontSize=11;fontStyle=0;align=left;fontColor=#596780;fontStyle=1;fontSize=11;rounded=0;" vertex="1" parent="SWR7fmxyppXxOml3gVJv-5">
          <mxGeometry x="4.285714285714292" y="140" width="102.85714285714285" height="20" as="geometry" />
        </mxCell>
        <mxCell id="SWR7fmxyppXxOml3gVJv-23" value="" style="rounded=1;arcSize=9;fillColor=#ffffff;align=left;spacingLeft=5;strokeColor=#4C9AFF;html=1;strokeWidth=2;fontSize=12" vertex="1" parent="SWR7fmxyppXxOml3gVJv-5">
          <mxGeometry x="4.290000000000006" y="160" width="195.71" height="17" as="geometry" />
        </mxCell>
        <mxCell id="nrIPhPpeLICr3U7Qrveo-0" value="&lt;h1&gt;Morning goal&lt;/h1&gt;&lt;p&gt;once your tap on morning notification or from the Dashboard section for today goal set, will navigate to this screen.&lt;/p&gt;&lt;p&gt;when user try to add goal after 11:00 AM app will show the Alert as You cant add morning goal after 11 AM.&lt;/p&gt;&lt;p&gt;missed day will be skipped and reputation will marked as 0 for whole day.&lt;/p&gt;&lt;p&gt;&lt;span&gt;user can see their today goal after morning goal. it will not be modify after submit.&lt;/span&gt;&lt;br&gt;&lt;/p&gt;&lt;p&gt;&lt;span&gt;user will not be able to enter repeatation screen before setup the today&#39;s goal.&lt;/span&gt;&lt;/p&gt;" style="text;html=1;strokeColor=none;fillColor=none;spacing=5;spacingTop=-20;whiteSpace=wrap;overflow=hidden;rounded=0;" vertex="1" parent="Y6u1Pzv9lawjL46MXB87-1">
          <mxGeometry x="350" y="140" width="230" height="300" as="geometry" />
        </mxCell>
        <mxCell id="nrIPhPpeLICr3U7Qrveo-1" value="" style="strokeWidth=1;shadow=0;dashed=0;align=center;html=1;shape=mxgraph.mockup.forms.rrect;rSize=0;strokeColor=#999999;fillColor=#ffffff;rounded=0;" vertex="1" parent="Y6u1Pzv9lawjL46MXB87-1">
          <mxGeometry x="100" y="480" width="210" height="300" as="geometry" />
        </mxCell>
        <mxCell id="nrIPhPpeLICr3U7Qrveo-2" value="&lt;b&gt;Accomplish Day Goal&lt;/b&gt;" style="strokeWidth=1;shadow=0;dashed=0;align=center;html=1;shape=mxgraph.mockup.forms.anchor;fontSize=12;fontColor=#666666;align=left;resizeWidth=1;spacingLeft=0;" vertex="1" parent="nrIPhPpeLICr3U7Qrveo-1">
          <mxGeometry width="190" height="20" relative="1" as="geometry">
            <mxPoint x="10" y="10" as="offset" />
          </mxGeometry>
        </mxCell>
        <mxCell id="nrIPhPpeLICr3U7Qrveo-3" value="" style="shape=line;strokeColor=#ddeeff;strokeWidth=2;html=1;resizeWidth=1;" vertex="1" parent="nrIPhPpeLICr3U7Qrveo-1">
          <mxGeometry width="77.14285714285714" height="10" relative="1" as="geometry">
            <mxPoint x="10" y="30" as="offset" />
          </mxGeometry>
        </mxCell>
        <mxCell id="nrIPhPpeLICr3U7Qrveo-4" value="Submit" style="strokeWidth=1;shadow=0;dashed=0;align=center;html=1;shape=mxgraph.mockup.forms.rrect;rSize=5;strokeColor=none;fontColor=#ffffff;fillColor=#66bbff;fontSize=16;fontStyle=1;" vertex="1" parent="nrIPhPpeLICr3U7Qrveo-1">
          <mxGeometry y="1" width="80" height="21" relative="1" as="geometry">
            <mxPoint x="20" y="-41" as="offset" />
          </mxGeometry>
        </mxCell>
        <mxCell id="nrIPhPpeLICr3U7Qrveo-5" value="&lt;span style=&quot;font-weight: normal&quot;&gt;wonderful things that happened today&lt;/span&gt;" style="fillColor=none;strokeColor=none;html=1;fontSize=11;fontStyle=0;align=left;fontColor=#596780;fontStyle=1;fontSize=11;rounded=0;" vertex="1" parent="nrIPhPpeLICr3U7Qrveo-1">
          <mxGeometry x="4.285714285714286" y="40" width="102.85714285714285" height="20" as="geometry" />
        </mxCell>
        <mxCell id="nrIPhPpeLICr3U7Qrveo-6" value="" style="rounded=1;arcSize=9;fillColor=#ffffff;align=left;spacingLeft=5;strokeColor=#4C9AFF;html=1;strokeWidth=2;fontSize=12" vertex="1" parent="nrIPhPpeLICr3U7Qrveo-1">
          <mxGeometry x="4.29" y="60" width="195.71" height="17" as="geometry" />
        </mxCell>
        <mxCell id="nrIPhPpeLICr3U7Qrveo-7" value="&lt;span style=&quot;font-weight: normal&quot;&gt;struggle i encountered&lt;/span&gt;" style="fillColor=none;strokeColor=none;html=1;fontSize=11;fontStyle=0;align=left;fontColor=#596780;fontStyle=1;fontSize=11;rounded=0;" vertex="1" parent="nrIPhPpeLICr3U7Qrveo-1">
          <mxGeometry x="4.285714285714292" y="90" width="102.85714285714285" height="20" as="geometry" />
        </mxCell>
        <mxCell id="nrIPhPpeLICr3U7Qrveo-8" value="" style="rounded=1;arcSize=9;fillColor=#ffffff;align=left;spacingLeft=5;strokeColor=#4C9AFF;html=1;strokeWidth=2;fontSize=12" vertex="1" parent="nrIPhPpeLICr3U7Qrveo-1">
          <mxGeometry x="4.290000000000006" y="110" width="195.71" height="17" as="geometry" />
        </mxCell>
        <mxCell id="nrIPhPpeLICr3U7Qrveo-9" value="&lt;span style=&quot;font-weight: normal&quot;&gt;possible solution for these struggle&lt;/span&gt;" style="fillColor=none;strokeColor=none;html=1;fontSize=11;fontStyle=0;align=left;fontColor=#596780;fontStyle=1;fontSize=11;rounded=0;" vertex="1" parent="nrIPhPpeLICr3U7Qrveo-1">
          <mxGeometry x="4.285714285714292" y="140" width="102.85714285714285" height="20" as="geometry" />
        </mxCell>
        <mxCell id="nrIPhPpeLICr3U7Qrveo-10" value="" style="rounded=1;arcSize=9;fillColor=#ffffff;align=left;spacingLeft=5;strokeColor=#4C9AFF;html=1;strokeWidth=2;fontSize=12" vertex="1" parent="nrIPhPpeLICr3U7Qrveo-1">
          <mxGeometry x="4.290000000000006" y="160" width="195.71" height="17" as="geometry" />
        </mxCell>
        <mxCell id="nrIPhPpeLICr3U7Qrveo-11" value="&lt;h1&gt;Evening goal&lt;/h1&gt;&lt;p&gt;once your tap on evening notification or from the Dashboard section for accomplish today goal, will navigate to this screen.&lt;/p&gt;&lt;p&gt;user will not be submit previous day evening goal if they haven&#39;t yet submitted.&lt;/p&gt;&lt;p&gt;user will not be able to accomplish goal before 6 PM.&lt;/p&gt;&lt;p&gt;if user missed morning goal then day will be skipped and reputation will marked as 0 for whole day.&lt;/p&gt;&lt;p&gt;&lt;span&gt;we could allow user to add repeatation .&lt;/span&gt;&lt;/p&gt;&lt;p&gt;&lt;span&gt;user will not be able to input evening goal if they haven&#39;t entered repeatations.&lt;/span&gt;&lt;/p&gt;" style="text;html=1;strokeColor=none;fillColor=none;spacing=5;spacingTop=-20;whiteSpace=wrap;overflow=hidden;rounded=0;" vertex="1" parent="Y6u1Pzv9lawjL46MXB87-1">
          <mxGeometry x="350" y="480" width="250" height="300" as="geometry" />
        </mxCell>
        <mxCell id="nrIPhPpeLICr3U7Qrveo-12" value="" style="strokeWidth=1;shadow=0;dashed=0;align=center;html=1;shape=mxgraph.mockup.forms.rrect;rSize=0;strokeColor=#999999;fillColor=#ffffff;rounded=0;" vertex="1" parent="Y6u1Pzv9lawjL46MXB87-1">
          <mxGeometry x="100" y="820" width="210" height="300" as="geometry" />
        </mxCell>
        <mxCell id="nrIPhPpeLICr3U7Qrveo-13" value="&lt;b&gt;Repeatation&lt;/b&gt;" style="strokeWidth=1;shadow=0;dashed=0;align=center;html=1;shape=mxgraph.mockup.forms.anchor;fontSize=12;fontColor=#666666;align=left;resizeWidth=1;spacingLeft=0;" vertex="1" parent="nrIPhPpeLICr3U7Qrveo-12">
          <mxGeometry width="190" height="20" relative="1" as="geometry">
            <mxPoint x="10" y="10" as="offset" />
          </mxGeometry>
        </mxCell>
        <mxCell id="nrIPhPpeLICr3U7Qrveo-14" value="" style="shape=line;strokeColor=#ddeeff;strokeWidth=2;html=1;resizeWidth=1;" vertex="1" parent="nrIPhPpeLICr3U7Qrveo-12">
          <mxGeometry width="77.14285714285714" height="10" relative="1" as="geometry">
            <mxPoint x="10" y="30" as="offset" />
          </mxGeometry>
        </mxCell>
        <mxCell id="nrIPhPpeLICr3U7Qrveo-17" value="" style="rounded=1;arcSize=9;fillColor=#ffffff;align=left;spacingLeft=5;strokeColor=#4C9AFF;html=1;strokeWidth=2;fontSize=12" vertex="1" parent="nrIPhPpeLICr3U7Qrveo-12">
          <mxGeometry x="8.29" y="52" width="195.71" height="17" as="geometry" />
        </mxCell>
        <mxCell id="nrIPhPpeLICr3U7Qrveo-19" value="" style="rounded=1;arcSize=9;fillColor=#ffffff;align=left;spacingLeft=5;strokeColor=#4C9AFF;html=1;strokeWidth=2;fontSize=12" vertex="1" parent="nrIPhPpeLICr3U7Qrveo-12">
          <mxGeometry x="8.290000000000006" y="82" width="195.71" height="17" as="geometry" />
        </mxCell>
        <mxCell id="nrIPhPpeLICr3U7Qrveo-21" value="" style="rounded=1;arcSize=9;fillColor=#ffffff;align=left;spacingLeft=5;strokeColor=#4C9AFF;html=1;strokeWidth=2;fontSize=12" vertex="1" parent="nrIPhPpeLICr3U7Qrveo-12">
          <mxGeometry x="8.290000000000006" y="112" width="195.71" height="17" as="geometry" />
        </mxCell>
        <mxCell id="nrIPhPpeLICr3U7Qrveo-23" value="" style="rounded=1;arcSize=9;fillColor=#ffffff;align=left;spacingLeft=5;strokeColor=#4C9AFF;html=1;strokeWidth=2;fontSize=12" vertex="1" parent="Y6u1Pzv9lawjL46MXB87-1">
          <mxGeometry x="108.15" y="962" width="195.71" height="17" as="geometry" />
        </mxCell>
        <mxCell id="nrIPhPpeLICr3U7Qrveo-24" value="" style="rounded=1;arcSize=9;fillColor=#ffffff;align=left;spacingLeft=5;strokeColor=#4C9AFF;html=1;strokeWidth=2;fontSize=12" vertex="1" parent="Y6u1Pzv9lawjL46MXB87-1">
          <mxGeometry x="108.15" y="992" width="195.71" height="17" as="geometry" />
        </mxCell>
        <mxCell id="nrIPhPpeLICr3U7Qrveo-25" value="" style="rounded=1;arcSize=9;fillColor=#ffffff;align=left;spacingLeft=5;strokeColor=#4C9AFF;html=1;strokeWidth=2;fontSize=12" vertex="1" parent="Y6u1Pzv9lawjL46MXB87-1">
          <mxGeometry x="108.15" y="1022" width="195.71" height="17" as="geometry" />
        </mxCell>
        <mxCell id="nrIPhPpeLICr3U7Qrveo-26" value="" style="rounded=1;arcSize=9;fillColor=#ffffff;align=left;spacingLeft=5;strokeColor=#4C9AFF;html=1;strokeWidth=2;fontSize=12" vertex="1" parent="Y6u1Pzv9lawjL46MXB87-1">
          <mxGeometry x="108.15" y="1056" width="195.71" height="17" as="geometry" />
        </mxCell>
        <mxCell id="nrIPhPpeLICr3U7Qrveo-27" value="" style="rounded=1;arcSize=9;fillColor=#ffffff;align=left;spacingLeft=5;strokeColor=#4C9AFF;html=1;strokeWidth=2;fontSize=12" vertex="1" parent="Y6u1Pzv9lawjL46MXB87-1">
          <mxGeometry x="108.15" y="1086" width="195.71" height="17" as="geometry" />
        </mxCell>
        <mxCell id="nrIPhPpeLICr3U7Qrveo-29" value="&lt;h1&gt;Repeatation&lt;/h1&gt;&lt;p&gt;once user added the repeatation it will not be modify&lt;/p&gt;&lt;p&gt;user will be notify before submitting the repeatation contents.&lt;/p&gt;&lt;p&gt;&lt;br&gt;&lt;/p&gt;" style="text;html=1;strokeColor=none;fillColor=none;spacing=5;spacingTop=-20;whiteSpace=wrap;overflow=hidden;rounded=0;" vertex="1" parent="Y6u1Pzv9lawjL46MXB87-1">
          <mxGeometry x="350" y="820" width="230" height="300" as="geometry" />
        </mxCell>
        <mxCell id="XDbsi1JpykNqmyg2B_e5-0" value="Dashboard" style="rounded=1;whiteSpace=wrap;html=1;fontSize=12;glass=0;strokeWidth=1;shadow=0;fillColor=#dae8fc;strokeColor=#6c8ebf;" vertex="1" parent="Y6u1Pzv9lawjL46MXB87-1">
          <mxGeometry x="320" y="40" width="120" height="40" as="geometry" />
        </mxCell>
      </root>
    </mxGraphModel>
  </diagram>
  <diagram id="tyJlWcSjiOubs-EZU6QJ" name="Page-3">
    <mxGraphModel dx="829" dy="501" grid="1" gridSize="10" guides="1" tooltips="1" connect="1" arrows="1" fold="1" page="1" pageScale="1" pageWidth="827" pageHeight="1169" math="0" shadow="0">
      <root>
        <mxCell id="oNnx9Tv-YgCjVqR7RSRD-0" />
        <mxCell id="oNnx9Tv-YgCjVqR7RSRD-1" parent="oNnx9Tv-YgCjVqR7RSRD-0" />
      </root>
    </mxGraphModel>
  </diagram>
</mxfile>
